<?xml version="1.0" encoding="utf-8"?>
<!-- Generator: Adobe Illustrator 24.1.2, SVG Export Plug-In . SVG Version: 6.00 Build 0)  -->
<svg version="1.1" id="レイヤー_1" xmlns="http://www.w3.org/2000/svg" xmlns:xlink="http://www.w3.org/1999/xlink" x="0px"
	 y="0px" viewBox="0 0 24 24" style="enable-background:new 0 0 24 24;" xml:space="preserve">
<style type="text/css">
	.st0{fill-rule:evenodd;clip-rule:evenodd;fill:#FFFFFF;}
</style>
<path class="st0" d="M9,23H8v-7.9c0-1-0.5-2-1.5-1.6l-1.6,0.7l-1.3-2.4l8.2-5.6l2.2,4.1l-3.4,1.4C9.5,12.4,9,13.5,9,15
	C9,15,9,23,9,23z M24,12.3l-6.5,1.4l0,5.3c-1.2-0.3-2.5,0.7-2.5,1.7c0,0.9,0.7,1.3,1.4,1.3c0.9,0,2-0.6,2-1.9l0-4.4l4.6-1l0,3.5
	c-1.2-0.2-2.3,0.7-2.3,1.7c0,0.9,0.7,1.3,1.4,1.3c0.9,0,1.8-0.6,1.8-1.9C23.9,19.4,24,12.3,24,12.3z M1,18.5l-1,0
	c0.1-2.6,1.1-4.4,3.2-5.5l0.5,0.9C1.9,14.8,1,16.3,1,18.5z M15.8,3c-1.5,0-2.6,0.8-3.4,2.1l2.9,5.4c2.8,0.2,4.3-1.8,4.3-3.7
	C19.6,4.7,17.9,3,15.8,3z M4.9,1L4,1L4,6C2.8,5.7,1.6,6.6,1.6,7.7C1.6,8.5,2.3,9,3,9c0.9,0,2-0.6,2-1.9l0-3.9
	c1.5,0.9,1.7,0.9,1.8,1.9c0.3-0.6,0.4-1,0.4-1.5C7.3,2.3,4.9,2.1,4.9,1z"/>
</svg>
