<svg enable-background="new 0 0 128 123.6" viewBox="0 0 128 123.6" xmlns="http://www.w3.org/2000/svg"><g fill="#fff"><path d="m42 107.8c-6.1 3.7-9.1 8.5-7.4 15.4h25c1.7-7.3-1.8-12-7.3-15.6 4.6-5.9 4.9-11.2 1.1-14.8-3.3-3.1-8.9-3.2-12.3-.3-4.2 3.8-4 9.1.9 15.3zm33.7-.2c-5.8 4.5-9.2 8.2-6.9 15.8h24.7c1.7-7.3-1.7-12-7.2-15.5 4.7-6.3 4.9-11.5.8-15.1-3.4-3-8.9-2.9-12.3.2-4.1 3.4-3.8 8.8.9 14.6z"/><path d="m42 107.8c-4.9-6.2-5.1-11.6-.9-15.2 3.4-3 9-2.8 12.3.3 3.8 3.6 3.5 8.9-1.1 14.8 5.5 3.6 8.9 8.3 7.3 15.6-8.2 0-16.5 0-25 0-1.7-7 1.3-11.7 7.4-15.5z"/><path d="m75.7 107.6c-4.6-5.7-4.9-11.1-1-14.7 3.4-3.1 8.9-3.2 12.3-.2 4.2 3.7 4 8.8-.8 15.1 5.6 3.5 9 8.2 7.2 15.5-8.3 0-16.5 0-24.7 0-2.3-7.6 1.1-11.3 7-15.7z"/><path d="m70.1.3s1.8 29.5 15.4 41.7 23.6 14.3 29.3 14.8 13.2 1 13.2 1l-.1-57.6h-57.8z"/><path d="m57.9.3s-1.8 29.5-15.4 41.7-23.6 14.3-29.3 14.8-13.2 1.1-13.2 1.1l.1-57.6z"/><path d="m127.9 64s-16.6-1.9-24.7 7.2-8.3 18.9-8.5 23.9l6.1-.1s.8-10 14-10.1 13.2 10.2 13.2 10.2z"/><path d="m.1 64s16.6-1.9 24.7 7.2 8.3 18.9 8.5 23.9l-6.1-.1s-.8-10-14-10.1-13.2 10.2-13.2 10.2z"/><path d="m108.8 107.6c-4.6-5.7-4.9-11.1-1-14.7 3.4-3.1 8.9-3.2 12.3-.2 4.2 3.7 4 8.8-.8 15.1 5.6 3.5 9 8.2 7.2 15.5-8.3 0-16.5 0-24.7 0-2.2-7.6 1.2-11.3 7-15.7z"/><path d="m8.1 107.8c-4.8-6.2-5.1-11.5-.9-15.2 3.4-3 9-2.8 12.3.3 3.8 3.6 3.5 8.9-1.1 14.8 5.5 3.6 8.9 8.3 7.3 15.6-8.2 0-16.5 0-25 0-1.6-7 1.3-11.7 7.4-15.5z"/></g></svg>