<svg enable-background="new 0 0 24 24" viewBox="0 0 24 24" xmlns="http://www.w3.org/2000/svg"><path clip-rule="evenodd" d="m9 23h-1v-7.9c0-1-.5-2-1.5-1.6l-1.6.7-1.3-2.4 8.2-5.6 2.2 4.1-3.4 1.4c-1.1.7-1.6 1.8-1.6 3.3zm15-10.7-6.5 1.4v5.3c-1.2-.3-2.5.7-2.5 1.7 0 .9.7 1.3 1.4 1.3.9 0 2-.6 2-1.9v-4.4l4.6-1v3.5c-1.2-.2-2.3.7-2.3 1.7 0 .9.7 1.3 1.4 1.3.9 0 1.8-.6 1.8-1.9 0 .1.1-7 .1-7zm-23 6.2h-1c.1-2.6 1.1-4.4 3.2-5.5l.5.9c-1.8.9-2.7 2.4-2.7 4.6zm14.8-15.5c-1.5 0-2.6.8-3.4 2.1l2.9 5.4c2.8.2 4.3-1.8 4.3-3.7 0-2.1-1.7-3.8-3.8-3.8zm-10.9-2h-.9v5c-1.2-.3-2.4.6-2.4 1.7 0 .8.7 1.3 1.4 1.3.9 0 2-.6 2-1.9v-3.9c1.5.9 1.7.9 1.8 1.9.3-.6.4-1 .4-1.5.1-1.3-2.3-1.5-2.3-2.6z" fill="#fff" fill-rule="evenodd"/></svg>