<svg enable-background="new 0 0 24 24" viewBox="0 0 24 24" xmlns="http://www.w3.org/2000/svg"><path clip-rule="evenodd" d="m10 23c0-1.1.9-2 2-2h2c.5 0 1 .2 1.4.6s.6.9.6 1.4v1h-6zm8 0c0-1.1.9-2 2-2h2c.5 0 1 .2 1.4.6s.6.9.6 1.4v1h-6zm-11.2-14c.6 0 1.3-.2 1.7-.4.8-.4 2.7-1.6 3.5-2.1.2-.1.5-.1.7.1.2.2.1.5 0 .7-.6.6-2.4 2.3-3.4 3.2-.5.5-.8 1.2-.9 1.9-.1 2.2-.3 6.9-.3 8.8-.1.4-.5.8-.9.8-.4 0-.8-.3-.8-.8-.1-1-.3-3.3-.4-4.2 0-.4-.3-.6-.6-.6s-.5.2-.5.6c-.1.9-.3 3.2-.3 4.2-.2.5-.6.8-1 .8-.5 0-.8-.4-.8-.8-.1-2.3-.4-9-.4-9l-1.3 2.3c-.1.3-.4.4-.7.3-.3-.1-.4-.4-.3-.7l1.2-4.4c.1-.4.5-.7.9-.7zm6.2 7c1.2 0 2.2 1 2.2 2.2s-1 2.2-2.2 2.2-2.2-1-2.2-2.2 1-2.2 2.2-2.2zm8 0c1.2 0 2.2 1 2.2 2.2s-1 2.2-2.2 2.2-2.2-1-2.2-2.2 1-2.2 2.2-2.2zm3-1h-14v-2h7v-1h3v1h2v-11h-20v4.4l-2 2v-8.4h24zm-7-5h-3v-1h3zm-11.6-6c1.2 0 2.2 1 2.2 2.2s-1 2.2-2.2 2.2-2.2-1-2.2-2.2.9-2.2 2.2-2.2zm14.6 4h-6v-1h6zm0-2h-6v-1h6z" fill="#fff" fill-rule="evenodd"/></svg>